HIERARCHY
ROOT Hips
{
    OFFSET   0.000000   0.000000   0.000000
    CHANNELS 6 Xposition Yposition Zposition Zrotation Xrotation Yrotation
    JOINT Chest
    {
        OFFSET   0.000000   8.007240   0.000000
        CHANNELS 3 Zrotation Xrotation Yrotation
        JOINT Chest2
        {
            OFFSET   0.000000  22.077100   0.000000
            CHANNELS 3 Zrotation Xrotation Yrotation
            JOINT Neck
            {
                OFFSET   0.000000  23.254800   0.000000
                CHANNELS 3 Zrotation Xrotation Yrotation
                JOINT Head
                {
                    OFFSET   0.000000  14.370000   1.956600
                    CHANNELS 3 Zrotation Xrotation Yrotation
                    End Site
                    {
                        OFFSET   0.000000  19.566000   0.000000
                    }
                }
            }
            JOINT LeftCollar
            {
                OFFSET   3.911900  19.017000  -0.467064
                CHANNELS 3 Zrotation Xrotation Yrotation
                JOINT LeftShoulder
                {
                    OFFSET  10.383700   0.000000   0.000000
                    CHANNELS 3 Zrotation Xrotation Yrotation
                    JOINT LeftElbow
                    {
                        OFFSET  26.662100   0.001476   0.000517
                        CHANNELS 3 Zrotation Xrotation Yrotation
                        JOINT LeftWrist
                        {
                            OFFSET  28.869000  -0.000025  -0.000106
                            CHANNELS 3 Zrotation Xrotation Yrotation
                            JOINT LeftFinger0
                            {
                                OFFSET   2.044660  -2.323460   3.252850
                                CHANNELS 3 Zrotation Xrotation Yrotation
                                JOINT LeftFinger01
                                {
                                    OFFSET   3.088130   0.000000   0.000000
                                    CHANNELS 3 Zrotation Xrotation Yrotation
                                    JOINT LeftFinger02
                                    {
                                        OFFSET   2.639460   0.000000   0.000000
                                        CHANNELS 3 Zrotation Xrotation Yrotation
                                        End Site
                                        {
                                            OFFSET   2.582190   0.000000   0.000000
                                        }
                                    }
                                }
                            }
                            JOINT LeftFinger1
                            {
                                OFFSET   8.364480   0.000000   3.252850
                                CHANNELS 3 Zrotation Xrotation Yrotation
                                JOINT LeftFinger11
                                {
                                    OFFSET   4.646930   0.000000   0.000000
                                    CHANNELS 3 Zrotation Xrotation Yrotation
                                    JOINT LeftFinger12
                                    {
                                        OFFSET   2.323460   0.000000   0.000000
                                        CHANNELS 3 Zrotation Xrotation Yrotation
                                        End Site
                                        {
                                            OFFSET   2.273050   0.000000   0.000000
                                        }
                                    }
                                }
                            }
                            JOINT LeftFinger2
                            {
                                OFFSET   8.364490   0.000015   1.078090
                                CHANNELS 3 Zrotation Xrotation Yrotation
                                JOINT LeftFinger21
                                {
                                    OFFSET   5.111620   0.000000   0.000000
                                    CHANNELS 3 Zrotation Xrotation Yrotation
                                    JOINT LeftFinger22
                                    {
                                        OFFSET   2.788160   0.000016   0.000000
                                        CHANNELS 3 Zrotation Xrotation Yrotation
                                        End Site
                                        {
                                            OFFSET   2.727660   0.000000   0.000000
                                        }
                                    }
                                }
                            }
                            JOINT LeftFinger3
                            {
                                OFFSET   7.899780   0.000017  -1.078090
                                CHANNELS 3 Zrotation Xrotation Yrotation
                                JOINT LeftFinger31
                                {
                                    OFFSET   4.646930   0.000000   0.000000
                                    CHANNELS 3 Zrotation Xrotation Yrotation
                                    JOINT LeftFinger32
                                    {
                                        OFFSET   2.323470   0.000000   0.000000
                                        CHANNELS 3 Zrotation Xrotation Yrotation
                                        End Site
                                        {
                                            OFFSET   2.273050   0.000000   0.000000
                                        }
                                    }
                                }
                            }
                            JOINT LeftFinger4
                            {
                                OFFSET   7.435090   0.000000  -3.252850
                                CHANNELS 3 Zrotation Xrotation Yrotation
                                JOINT LeftFinger41
                                {
                                    OFFSET   3.717550   0.000000   0.000000
                                    CHANNELS 3 Zrotation Xrotation Yrotation
                                    JOINT LeftFinger42
                                    {
                                        OFFSET   1.858770   0.000000   0.000000
                                        CHANNELS 3 Zrotation Xrotation Yrotation
                                        End Site
                                        {
                                            OFFSET   1.818440   0.000000   0.000000
                                        }
                                    }
                                }
                            }
                        }
                    }
                }
            }
            JOINT RightCollar
            {
                OFFSET  -3.911900  19.017000  -0.467063
                CHANNELS 3 Zrotation Xrotation Yrotation
                JOINT RightShoulder
                {
                    OFFSET -10.383700   0.000019   0.000000
                    CHANNELS 3 Zrotation Xrotation Yrotation
                    JOINT RightElbow
                    {
                        OFFSET -26.662100   0.001175   0.000102
                        CHANNELS 3 Zrotation Xrotation Yrotation
                        JOINT RightWrist
                        {
                            OFFSET -28.869000   0.000016  -0.000079
                            CHANNELS 3 Zrotation Xrotation Yrotation
                            JOINT RightFinger0
                            {
                                OFFSET  -2.044660  -2.323490   3.252850
                                CHANNELS 3 Zrotation Xrotation Yrotation
                                JOINT RightFinger01
                                {
                                    OFFSET  -3.088140   0.000000   0.000000
                                    CHANNELS 3 Zrotation Xrotation Yrotation
                                    JOINT RightFinger02
                                    {
                                        OFFSET  -2.639460   0.000000   0.000000
                                        CHANNELS 3 Zrotation Xrotation Yrotation
                                        End Site
                                        {
                                            OFFSET  -2.582190   0.000000   0.000000
                                        }
                                    }
                                }
                            }
                            JOINT RightFinger1
                            {
                                OFFSET  -8.364480   0.000000   3.252850
                                CHANNELS 3 Zrotation Xrotation Yrotation
                                JOINT RightFinger11
                                {
                                    OFFSET  -4.646930   0.000000   0.000000
                                    CHANNELS 3 Zrotation Xrotation Yrotation
                                    JOINT RightFinger12
                                    {
                                        OFFSET  -2.323470   0.000000   0.000000
                                        CHANNELS 3 Zrotation Xrotation Yrotation
                                        End Site
                                        {
                                            OFFSET  -2.273050   0.000000   0.000000
                                        }
                                    }
                                }
                            }
                            JOINT RightFinger2
                            {
                                OFFSET  -8.364480   0.000000   1.078090
                                CHANNELS 3 Zrotation Xrotation Yrotation
                                JOINT RightFinger21
                                {
                                    OFFSET  -5.111620   0.000000   0.000000
                                    CHANNELS 3 Zrotation Xrotation Yrotation
                                    JOINT RightFinger22
                                    {
                                        OFFSET  -2.788160   0.000000   0.000000
                                        CHANNELS 3 Zrotation Xrotation Yrotation
                                        End Site
                                        {
                                            OFFSET  -2.727660   0.000000   0.000000
                                        }
                                    }
                                }
                            }
                            JOINT RightFinger3
                            {
                                OFFSET  -7.899780   0.000000  -1.078090
                                CHANNELS 3 Zrotation Xrotation Yrotation
                                JOINT RightFinger31
                                {
                                    OFFSET  -4.646930   0.000000   0.000000
                                    CHANNELS 3 Zrotation Xrotation Yrotation
                                    JOINT RightFinger32
                                    {
                                        OFFSET  -2.323470   0.000000   0.000000
                                        CHANNELS 3 Zrotation Xrotation Yrotation
                                        End Site
                                        {
                                            OFFSET  -2.273050   0.000000   0.000000
                                        }
                                    }
                                }
                            }
                            JOINT RightFinger4
                            {
                                OFFSET  -7.435090   0.000000  -3.252850
                                CHANNELS 3 Zrotation Xrotation Yrotation
                                JOINT RightFinger41
                                {
                                    OFFSET  -3.717550   0.000000   0.000000
                                    CHANNELS 3 Zrotation Xrotation Yrotation
                                    JOINT RightFinger42
                                    {
                                        OFFSET  -1.858770   0.000000   0.000000
                                        CHANNELS 3 Zrotation Xrotation Yrotation
                                        End Site
                                        {
                                            OFFSET  -1.818440   0.000000   0.000000
                                        }
                                    }
                                }
                            }
                        }
                    }
                }
            }
        }
    }
    JOINT LeftHip
    {
        OFFSET   9.783040   0.000000   0.000000
        CHANNELS 3 Zrotation Xrotation Yrotation
        JOINT LeftKnee
        {
            OFFSET   0.000032 -41.789100  -0.002222
            CHANNELS 3 Zrotation Xrotation Yrotation
            JOINT LeftAnkle
            {
                OFFSET   0.000087 -41.133200  -0.000135
                CHANNELS 3 Zrotation Xrotation Yrotation
                JOINT LeftToe
                {
                    OFFSET   0.000000  -6.358960  14.674500
                    CHANNELS 3 Zrotation Xrotation Yrotation
                    End Site
                    {
                        OFFSET   0.000000   0.000000   3.913200
                    }
                }
            }
        }
    }
    JOINT RightHip
    {
        OFFSET  -9.783040   0.000000   0.000000
        CHANNELS 3 Zrotation Xrotation Yrotation
        JOINT RightKnee
        {
            OFFSET   0.000047 -41.789100  -0.000896
            CHANNELS 3 Zrotation Xrotation Yrotation
            JOINT RightAnkle
            {
                OFFSET  -0.000117 -41.133300  -0.000248
                CHANNELS 3 Zrotation Xrotation Yrotation
                JOINT RightToe
                {
                    OFFSET   0.000000  -6.358970  14.674500
                    CHANNELS 3 Zrotation Xrotation Yrotation
                    End Site
                    {
                        OFFSET   0.000000   0.000000   3.913200
                    }
                }
            }
        }
    }
}
MOTION
Frames: 6
Frame Time:   0.016667
 -2.331960  89.526300   2.295770  -1.978860  -0.684983   1.953500   1.734060   2.162840  -1.471330   3.526870   4.279390  -3.010680  -0.770982   0.199636   0.012890  -1.266690   0.404395   9.867200  -7.086120   4.226850   1.337270 -70.797200  17.385600  -8.358310  -2.990880  -7.567800 -10.823400   7.395060 -11.873000   6.080670  38.881200  29.017300 -70.314500 -15.299500   0.000000   0.014982  -2.649750   0.003838   0.007141 -34.457800   7.180710 -10.323700 -28.724100   0.002995   0.010849 -20.106800   0.003194   0.008098 -28.580600   1.930010  -3.537550 -38.119900   0.002791  -0.000232 -25.387900  -0.003611   0.012043 -28.747600  -0.637915   1.162490 -40.503000  -0.000410   0.013705 -26.975000  -0.005520   0.008375 -35.881700  -2.051960   2.833650 -53.898700  -0.002485   0.011445 -35.896500  -0.010865   0.010095   5.302860   1.696140  11.692800  71.796500   7.243450   1.991420   0.673476  -6.213980   8.966290 -15.087400 -13.924200   3.713440 -48.212700  41.308600  83.911900  12.918300   0.011386  -0.007084   1.450070   0.007380  -0.006224  28.339600   3.745150   6.905670  23.371900   0.002697  -0.003524  16.360300   0.006676  -0.013662  28.372400   3.749670   6.903270  37.434600  -0.002896  -0.004706  24.931500  -0.006709  -0.001417  28.667800   2.664540   4.860380  41.259700  -0.002608  -0.000969  27.485200  -0.004704  -0.005455  38.145800  -0.542697  -0.699647  57.223500  -0.001279  -0.001520  38.110900  -0.001514  -0.002899   3.372280   4.026770   2.047540   0.189764   0.465307  10.505800  -2.826020  -3.059700   0.397695   0.000000   0.000000  -0.000000   0.885922  -0.137720  -6.572320   1.738290   3.249870  -7.364780  -3.530460  -1.966920  -1.809940  -0.000000   0.000000   0.000000
 -2.331980  89.526300   2.299410  -1.978760  -0.684964   1.953430   1.734110   2.162840  -1.470860   3.526960   4.279390  -3.009740  -0.764286   0.203898   0.012923  -1.255660   0.413150   9.861500  -7.087070   4.230620   1.347790 -70.810800  17.359200  -8.342750  -2.990250  -7.559360 -10.830000   7.405060 -11.850100   6.064410  38.909400  29.014200 -70.291500 -15.291800   0.000000   0.014986  -2.645930   0.003814   0.007142 -34.432000   7.174940 -10.323600 -28.702700   0.002993   0.010852 -20.091900   0.003190   0.008095 -28.580600   1.930010  -3.537550 -38.061700   0.002788  -0.000234 -25.349100  -0.003613   0.012045 -28.747800  -0.633064   1.153780 -40.424100  -0.000414   0.013706 -26.922500  -0.005522   0.008377 -35.865200  -2.043480   2.823670 -53.873400  -0.002486   0.011441 -35.879700  -0.010864   0.010097   5.309870   1.696340  11.692900  71.826000   7.270790   1.975490   0.679671  -6.212640   8.960900 -15.077200 -13.906700   3.733140 -48.257300  41.330100  83.939200  12.909200   0.011387  -0.007071   1.450060   0.007372  -0.006223  28.303600   3.724400   6.878010  23.340700   0.002695  -0.003520  16.338400   0.006675  -0.013664  28.376300   3.733560   6.873110  37.449100  -0.002902  -0.004703  24.941100  -0.006707  -0.001417  28.665700   2.676450   4.882160  41.264400  -0.002603  -0.000967  27.485200  -0.004703  -0.005450  38.141000  -0.542771  -0.699649  57.216400  -0.001270  -0.001519  38.106200  -0.001506  -0.002897   3.371980   4.035270   2.047600   0.191482   0.450541  10.505900  -2.825530  -3.056310   0.397798   0.000000   0.000000  -0.000000   0.885909  -0.131034  -6.572350   1.738950   3.243010  -7.364580  -3.530510  -1.968510  -1.809930   0.000000   0.000000   0.000000
 -2.332010  89.526300   2.305620  -1.978670  -0.684918   1.953360   1.734120   2.162800  -1.469410   3.526900   4.279360  -3.006820  -0.752609   0.210959   0.012955  -1.236450   0.427561   9.852630  -7.088180   4.238460   1.358330 -70.832000  17.315500  -8.321000  -2.988910  -7.543030 -10.842500   7.430880 -11.827100   6.048160  38.926900  29.007000 -70.262200 -15.284200   0.000000   0.014991  -2.642100   0.003791   0.007143 -34.406800   7.166540 -10.323400 -28.681300   0.002988   0.010857 -20.076900   0.003184   0.008090 -28.580600   1.930010  -3.537550 -37.996800   0.002780  -0.000237 -25.305900  -0.003616   0.012052 -28.747900  -0.628213   1.145070 -40.345300  -0.000423   0.013707 -26.870000  -0.005526   0.008381 -35.848700  -2.035000   2.813690 -53.848100  -0.002489   0.011431 -35.862800  -0.010862   0.010102   5.321090   1.696540  11.693000  71.871300   7.309560   1.950970   0.690433  -6.202770   8.952760 -15.060600 -13.881100   3.758010 -48.330900  41.366300  83.984200  12.900100   0.011388  -0.007043   1.450050   0.007360  -0.006217  28.241100   3.683580   6.820970  23.286000   0.002693  -0.003514  16.300200   0.006673  -0.013669  28.384300   3.700670   6.811800  37.463500  -0.002909  -0.004698  24.950700  -0.006703  -0.001413  28.663700   2.688350   4.903930  41.269000  -0.002593  -0.000961  27.485200  -0.004695  -0.005437  38.131500  -0.542844  -0.699651  57.202000  -0.001247  -0.001515  38.096600  -0.001484  -0.002891   3.371500   4.049260   2.047740   0.193658   0.427931  10.506000  -2.824560  -3.051460   0.397985   0.000000   0.000000  -0.000000   0.885896  -0.124348  -6.572410   1.739610   3.236140  -7.364390  -3.530600  -1.971420  -1.809880   0.000000   0.000000   0.000000
 -2.332040  89.526300   2.311040  -1.978890  -0.684847   1.953390   1.733200   2.162480  -1.466950   3.524960   4.278850  -3.001860  -0.741959   0.216827   0.012929  -1.218980   0.439239   9.847080  -7.088530   4.249300   1.358320 -70.848700  17.274800  -8.312470  -2.982610  -7.523560 -10.856800   7.474610 -11.836500   6.056320  38.912600  28.997200 -70.256500 -15.320600  -0.000048   0.014991  -2.660280   0.003803   0.007137 -34.428500   7.163410 -10.312900 -28.698400   0.002981   0.010860 -20.088900   0.003182   0.008084 -28.580800   1.923170  -3.525000 -37.990600   0.002767  -0.000240 -25.301800  -0.003620   0.012063 -28.747500  -0.636916   1.160900 -40.367400  -0.000439   0.013710 -26.884700  -0.005532   0.008389 -35.859800  -2.039440   2.814110 -53.865100  -0.002493   0.011413 -35.874100  -0.010857   0.010110   5.329310   1.695300  11.693000  71.900300   7.323580   1.932490   0.698318  -6.167160   8.949900 -15.047700 -13.868400   3.763980 -48.405100  41.397000  84.020300  12.914800   0.011367  -0.007009   1.457400   0.007351  -0.006198  28.184200   3.624040   6.731120  23.233800   0.002691  -0.003513  16.263700   0.006682  -0.013674  28.390800   3.649700   6.717330  37.457000  -0.002902  -0.004694  24.946400  -0.006701  -0.001400  28.664300   2.687800   4.902930  41.267300  -0.002579  -0.000954  27.484000  -0.004681  -0.005418  38.119900  -0.542820  -0.696276  57.184800  -0.001209  -0.001507  38.085100  -0.001449  -0.002882   3.372730   4.060700   2.047960   0.194232   0.411578  10.506000  -2.823360  -3.048970   0.398168  -0.000000   0.000000   0.000000   0.887905  -0.127100  -6.572510   1.739030   3.239860  -7.368060  -3.530880  -1.974050  -1.809810   0.000000   0.000000   0.000000
 -2.332070  89.526200   2.316320  -1.979320  -0.684760   1.953500   1.731760   2.162010  -1.463500   3.521980   4.278050  -2.994910  -0.731134   0.222023   0.012893  -1.201220   0.449646   9.841850  -7.088840   4.259390   1.358120 -70.858800  17.247000  -8.308670  -2.971090  -7.504600 -10.870200   7.516890 -11.852500   6.068690  38.909100  28.991500 -70.257100 -15.364000  -0.000129   0.014991  -2.681990   0.003817   0.007124 -34.450800   7.160260 -10.298000 -28.715600   0.002972   0.010864 -20.100900   0.003179   0.008076 -28.581200   1.911680  -3.503970 -37.987800   0.002750  -0.000244 -25.299900  -0.003625   0.012078 -28.747000  -0.650119   1.184930 -40.389400  -0.000460   0.013713 -26.899400  -0.005540   0.008399 -35.874300  -2.043870   2.815310 -53.887100  -0.002499   0.011390 -35.888800  -0.010852   0.010121   5.337480   1.691620  11.693000  71.922900   7.334920   1.922660   0.705582  -6.117720   8.943760 -15.034800 -13.859500   3.764720 -48.476000  41.425600  84.053800  12.929500   0.011333  -0.006967   1.464740   0.007339  -0.006169  28.128000   3.584560   6.670650  23.184800   0.002689  -0.003512  16.229400   0.006697  -0.013681  28.393300   3.615490   6.654030  37.450400  -0.002894  -0.004687  24.942000  -0.006695  -0.001385  28.665300   2.687250   4.901940  41.265500  -0.002562  -0.000946  27.482800  -0.004659  -0.005394  38.107100  -0.542703  -0.691231  57.165600  -0.001161  -0.001497  38.072300  -0.001401  -0.002870   3.374680   4.070670   2.048200   0.193426   0.402566  10.506200  -2.822160  -3.047950   0.398359   0.000000   0.000000   0.000000   0.891152  -0.129852  -6.572620   1.738690   3.244820  -7.374360  -3.531170  -1.977460  -1.809730   0.000000   0.000000   0.000000
 -2.332140  89.526200   2.320770  -1.979780  -0.684664   1.953740   1.730570   2.161530  -1.459260   3.519350   4.277300  -2.986360  -0.720839   0.225463   0.012877  -1.184090   0.457106   9.836690  -7.088980   4.263360   1.357580 -70.853700  17.244000  -8.307060  -2.956440  -7.492650 -10.877200   7.535470 -11.869700   6.074290  38.911000  28.994500 -70.261100 -15.372200  -0.000195   0.014985  -2.686110   0.003820   0.007106 -34.446100   7.154800 -10.292000 -28.710800   0.002959   0.010871 -20.097600   0.003166   0.008064 -28.581900   1.901960  -3.486150 -37.983900   0.002731  -0.000248 -25.297200  -0.003634   0.012095 -28.746600  -0.658196   1.199780 -40.387800  -0.000486   0.013717 -26.898300  -0.005549   0.008412 -35.878300  -2.043320   2.818030 -53.892900  -0.002506   0.011362 -35.892700  -0.010845   0.010134   5.345950   1.684620  11.692900  71.939100   7.352700   1.927850   0.712029  -6.070610   8.917320 -15.023200 -13.853100   3.756390 -48.517900  41.446400  84.078800  12.927700   0.011305  -0.006917   1.463820   0.007317  -0.006139  28.082500   3.587260   6.684400  23.149400   0.002690  -0.003505  16.204700   0.006710  -0.013689  28.392600   3.621850   6.665800  37.452000  -0.002891  -0.004678  24.943100  -0.006680  -0.001371  28.665200   2.692480   4.911500  41.271400  -0.002542  -0.000936  27.486700  -0.004624  -0.005366  38.091700  -0.542463  -0.687926  57.142500  -0.001110  -0.001484  38.057000  -0.001342  -0.002857   3.375370   4.078040   2.048400   0.191432   0.401983  10.506300  -2.821230  -3.048930   0.398551  -0.000000   0.000000   0.000000   0.893989  -0.128023  -6.572740   1.739180   3.246240  -7.381260  -3.531300  -1.982470  -1.809680   0.000000   0.000000   0.000000
